{"title":"Happy Feet Two 2011 BRRiP AC3 XViD - INSPiRAL","uid":7072874,"size":1491651156,"categoryP":"video","categoryS":"movies","magnet":"?xt=urn:btih:7e13a27b56c78582662f9bd5e7b2636f26e7c5df&amp;dn=Happy+Feet+Two+2011+BRRiP+AC3+XViD+-+INSPiRAL&amp;tr=udp%3A%2F%2Ftracker.openbittorrent.com%3A80&amp;tr=udp%3A%2F%2Fopen.demonii.com%3A1337&amp;tr=udp%3A%2F%2Ftracker.coppersurfer.tk%3A6969&amp;tr=udp%3A%2F%2Fexodus.desync.com%3A6969","seeders":0,"leechers":1,"uploader":"TvTeam","files":5,"time":1330737873,"description":". \n &lt;a href=&quot;\nhttp://www.torrenting.com&quot; rel=&quot;nofollow&quot; target=&quot;_NEW&quot;&gt;\nhttp://www.torrenting.com&lt;/a&gt;          :     Once &amp; For all ;)\n\n\n               www . Torrenting . Com \n\n(((((((((((((= Enjoy No RAR releases =))))))))))))))))))))\n\n\n...................................NFO:....................................\n\n.[IMG]http://i.imgur.com/2mcr9.png[/IMG]\n\n \nTITLE: \n\nHappy Feet Two 2011 BRRiP AC3 XViD - INSPiRAL\n\nIMDB: \n &lt;a href=&quot;\nhttp://www.imdb.com/title/tt1823051/&quot; rel=&quot;nofollow&quot; target=&quot;_NEW&quot;&gt;\nhttp://www.imdb.com/title/tt1823051/&lt;/a&gt;\n\n\nSOURCES:\n\nVIDEO - 1080p sector7 THANKS\nAUDIO - 1080p sector7 THANKS\nSUBS  - None Add\n\nSTATS:\n\nVideo\nID                               : 0\nFormat                           : MPEG-4 Visual\nFormat profile                   : Advanced Simple@L5\nFormat settings, BVOP            : 2\nFormat settings, QPel            : No\nFormat settings, GMC             : No warppoints\nFormat settings, Matrix          : Default (MPEG)\nMuxing mode                      : Packed bitstream\nCodec ID                         : XVID\nCodec ID/Hint                    : XviD\nDuration                         : 1h 39mn\nBit rate                         : 1 517 Kbps\nWidth                            : 720 pixels\nHeight                           : 304 pixels\nDisplay aspect ratio             : 2.35:1\nFrame rate                       : 23.976 fps\nColor space                      : YUV\nChroma subsampling               : 4:2:0\nBit depth                        : 8 bits\nScan type                        : Progressive\nCompression mode                 : Lossy\nBits/(Pixel*Frame)               : 0.289\nStream size                      : 1.05 GiB (77%)\nWriting library                  : XviD 64\n\nAudio\nID                               : 1\nFormat                           : AC-3\nFormat/Info                      : Audio Coding 3\nMode extension                   : CM (complete main)\nCodec ID                         : 2000\nDuration                         : 1h 39mn\nBit rate mode                    : Constant\nBit rate                         : 448 Kbps\nChannel(s)                       : 6 channels\nChannel positions                : Front: L C R, Side: L R, LFE\nSampling rate                    : 48.0 KHz\nBit depth                        : 16 bits\nCompression mode                 : Lossy\nStream size                      : 319 MiB (23%)\nAlignment                        : Aligned on interleaves\nInterleave, duration             : 42 ms (1.00 video frame)\nInterleave, preload duration     : 512 ms\n\n\nNOTES:\n\nStraight forward rip and then just converted DTS audio to AC3 and remuxed ....enjoy those happy feet :)\n\n\nSCREENS:\n\n[IMG]http://i.imgur.com/zWo7Y.png[/IMG]\n[IMG]http://i.imgur.com/cgmqA.png[/IMG]\n[IMG]http://i.imgur.com/sDMfj.png[/IMG]\n[IMG]http://i.imgur.com/WweGA.png[/IMG]\n\n\nGREETZ: \n\nPast,Present and Future\n\n[IMG]http://i.imgur.com/2mcr9.png[/IMG]","torrent":{"xt":"urn:btih:7e13a27b56c78582662f9bd5e7b2636f26e7c5df","amp;dn":"Happy+Feet+Two+2011+BRRiP+AC3+XViD+-+INSPiRAL","amp;tr":["udp%3A%2F%2Ftracker.openbittorrent.com%3A80","udp%3A%2F%2Fopen.demonii.com%3A1337","udp%3A%2F%2Ftracker.coppersurfer.tk%3A6969","udp%3A%2F%2Fexodus.desync.com%3A6969"],"infoHash":"7e13a27b56c78582662f9bd5e7b2636f26e7c5df","infoHashBuffer":{"type":"Buffer","data":[126,19,162,123,86,199,133,130,102,47,155,213,231,178,99,111,38,231,197,223]},"announce":[],"urlList":[]}}